<svg xmlns="http://www.w3.org/2000/svg" height="20" width="20"><path d="M7.5 10.5h1V9H9q.417 0 .708-.292Q10 8.417 10 8v-.5q0-.417-.292-.708Q9.417 6.5 9 6.5H7.5Zm1-2.5v-.5H9V8Zm2 2.5H12q.417 0 .708-.292Q13 9.917 13 9.5v-2q0-.417-.292-.708Q12.417 6.5 12 6.5h-1.5Zm1-1v-2h.5v2Zm2 1h1V9h1V8h-1v-.5h1v-1h-2Zm-7 4.5q-.625 0-1.062-.438Q5 14.125 5 13.5v-10q0-.625.438-1.062Q5.875 2 6.5 2h10q.625 0 1.062.438Q18 2.875 18 3.5v10q0 .625-.438 1.062Q17.125 15 16.5 15Zm0-1.5h10v-10h-10v10Zm-3 4.5q-.625 0-1.062-.438Q2 17.125 2 16.5V5h1.5v11.5H15V18Zm3-14.5v10-10Z"/></svg>