<svg xmlns="http://www.w3.org/2000/svg" viewBox="0 0 1024 1024" width="24" height="24"><path d="M106.667 682.667c0 59.733 46.933 106.667 106.667 106.667s106.667-46.933 106.667-106.667v-512h21.333V85.334h-256v85.333h21.333v512zm64-512H256V384h-85.333V170.667zm512-85.334v85.333H704v512c0 59.733 46.933 106.667 106.667 106.667S917.334 742.4 917.334 682.666v-512h21.333V85.333h-256zM853.333 384H768V170.667h85.333V384zm-448 298.667c0 59.733 46.933 106.667 106.667 106.667s106.667-46.933 106.667-106.667v-512H640V85.334H384v85.333h21.333v512zm64-512h85.333V384h-85.333V170.667zm-384 682.666h853.333v85.333H85.333v-85.333z"/></svg>