<svg xmlns="http://www.w3.org/2000/svg" viewBox="0 0 1024 1024" width="24" height="24"><path d="M128 164.267L265.813 302.08c-100.502 18.534-175.63 105.481-175.63 209.975 0 116.115 92.768 210.564 208.231 213.274l170.919.005v-81.067H298.666c-73.049 0-132.267-59.218-132.267-132.267s59.218-132.267 132.267-132.267h42.667l89.6 89.6h-89.6v85.333H518.4l347.307 347.307 60.16-60.16L188.16 104.106zM725.333 377.6l.616-.001c72.813 0 131.84 59.027 131.84 131.84 0 38.47-16.477 73.092-42.759 97.193l57.076 57.262c39.246-38.709 63.556-92.473 63.556-151.914 0-116.765-93.808-211.619-210.171-213.31l-213.493-.002 73.813 81.067h139.52z"/></svg>