<svg xmlns="http://www.w3.org/2000/svg" viewBox="0 0 1024 1024" width="24" height="24"><path d="M640 469.333v-256l-128-128-128 128v85.333H128v597.333h768V469.332H640zM298.667 810.667h-85.333v-85.333h85.333v85.333zm0-170.667h-85.333v-85.333h85.333V640zm0-170.667h-85.333V384h85.333v85.333zm256 341.334h-85.333v-85.333h85.333v85.333zm0-170.667h-85.333v-85.333h85.333V640zm0-170.667h-85.333V384h85.333v85.333zm0-170.666h-85.333v-85.333h85.333v85.333zm256 512h-85.333v-85.333h85.333v85.333zm0-170.667h-85.333v-85.333h85.333V640z"/></svg>