<svg xmlns="http://www.w3.org/2000/svg" viewBox="0 0 1024 1024" width="24" height="24"><path d="M554.667 725.333h-85.333V554.666H298.667v-85.333h170.667V298.666h85.333v170.667h170.667v85.333H554.667v170.667zM512 938.667C276.359 938.667 85.333 747.642 85.333 512S276.358 85.333 512 85.333c235.641 0 426.667 191.025 426.667 426.667S747.642 938.667 512 938.667zm0-768c-188.513 0-341.333 152.82-341.333 341.333S323.487 853.333 512 853.333c188.513 0 341.333-152.82 341.333-341.333S700.513 170.667 512 170.667z"/></svg>