<svg xmlns="http://www.w3.org/2000/svg" viewBox="0 0 1024 1024" width="24" height="24"><path d="M512 85.333C276.359 85.333 85.333 276.358 85.333 512S276.358 938.667 512 938.667c235.641 0 426.667-191.025 426.667-426.667S747.642 85.333 512 85.333zm0 768c-188.513 0-341.333-152.82-341.333-341.333S323.487 170.667 512 170.667c188.513 0 341.333 152.82 341.333 341.333S700.513 853.333 512 853.333zm149.333-554.666c-35.346 0-64 28.654-64 64s28.654 64 64 64c35.346 0 64-28.654 64-64s-28.654-64-64-64zM384 384c-47.128 0-85.333 38.205-85.333 85.333s38.205 85.333 85.333 85.333 85.333-38.205 85.333-85.333S431.128 384 384 384zm170.667 170.667c-47.128 0-85.333 38.205-85.333 85.333s38.205 85.333 85.333 85.333S640 687.128 640 640s-38.205-85.333-85.333-85.333z"/></svg>