<svg xmlns="http://www.w3.org/2000/svg" viewBox="0 0 1024 1024" width="24" height="24"><path d="M512 85.333C276.359 85.333 85.333 276.358 85.333 512S276.358 938.667 512 938.667c235.641 0 426.667-191.025 426.667-426.667S747.642 85.333 512 85.333zm-42.667 765.014c-169.142-21.908-298.504-164.995-298.667-338.33.018-26.048 3.284-52.957 9.434-78.747L383.999 640v42.667c0 47.128 38.205 85.333 85.333 85.333v82.347zm294.4-108.374c-11.314-34.609-43.305-59.215-81.056-59.307h-42.678v-128c0-23.564-19.103-42.667-42.667-42.667h-256v-85.333h85.333c23.564 0 42.667-19.103 42.667-42.667v-85.333h85.333c47.128 0 85.333-38.205 85.333-85.333V195.84c125.867 52.155 212.794 174.029 212.794 316.206 0 88.699-33.833 169.496-89.297 230.191z"/></svg>