<svg xmlns="http://www.w3.org/2000/svg" viewBox="0 0 1024 1024" width="24" height="24"><path d="M512 192c-212.052.128-393.571 131.114-468.128 316.605C118.395 700.83 299.908 831.753 512 831.753s393.605-130.924 468.129-316.361C905.638 323.182 724.14 192.168 512.021 192zm0 533.333c-117.821 0-213.333-95.513-213.333-213.333S394.18 298.667 512 298.667c117.821 0 213.333 95.513 213.333 213.333S629.82 725.333 512 725.333zM512 384c-70.692 0-128 57.308-128 128s57.308 128 128 128c70.692 0 128-57.308 128-128s-57.308-128-128-128z"/></svg>