<svg xmlns="http://www.w3.org/2000/svg" viewBox="0 0 1024 1024" width="24" height="24"><path d="M512 85.333C276.359 85.333 85.333 276.358 85.333 512S276.358 938.667 512 938.667c235.641 0 426.667-191.025 426.667-426.667S747.642 85.333 512 85.333zm42.667 725.334h-85.333v-85.333h85.333v85.333zM642.987 480l-38.4 39.253c-30.898 26.754-50.329 66.038-50.329 109.86 0 3.831.149 7.628.44 11.385L469.334 640v-21.333-.134c0-47.095 19.075-89.735 49.922-120.614l52.905-53.758c15.415-15.264 25.071-36.574 25.173-60.14 0-47.148-38.205-85.353-85.333-85.353s-85.333 38.205-85.333 85.333h-85.333c0-94.257 76.41-170.667 170.667-170.667s170.667 76.41 170.667 170.667v.119c0 37.437-15.162 71.333-39.681 95.882z"/></svg>