<svg xmlns="http://www.w3.org/2000/svg" viewBox="0 0 1024 1024" width="24" height="24"><path d="M768 85.333L453.973 399.786c-27.444-10.002-59.126-15.787-92.16-15.787-153.173 0-276.48 103.253-276.48 256s123.307 298.667 276.48 298.667h.101c153.167 0 277.333-124.166 277.333-277.333 0-32.713-5.664-64.104-16.065-93.244l59.483-56.09v-85.333h85.333v-85.333h85.333V256h85.333V85.333H767.997zM298.667 789.76c-47.128 0-85.333-38.205-85.333-85.333s38.205-85.333 85.333-85.333S384 657.299 384 704.427s-38.205 85.333-85.333 85.333z"/></svg>