<svg xmlns="http://www.w3.org/2000/svg" viewBox="0 0 1024 1024" width="24" height="24"><path d="M166.4 512c0-73.049 59.218-132.267 132.267-132.267h170.667v-81.067H298.667c-117.821 0-213.333 95.513-213.333 213.333s95.513 213.333 213.333 213.333h170.667v-81.067H298.667c-73.049 0-132.267-59.218-132.267-132.267zm174.933 42.667h341.333v-85.333H341.333v85.333zm384-256H554.666v81.067h170.667c73.049 0 132.267 59.218 132.267 132.267s-59.218 132.267-132.267 132.267H554.666v81.067h170.667c117.821 0 213.333-95.513 213.333-213.333s-95.513-213.333-213.333-213.333z"/></svg>