<svg xmlns="http://www.w3.org/2000/svg" viewBox="0 0 1024 1024" width="24" height="24"><path d="M768 341.333h-42.667V256c0-117.821-95.513-213.333-213.333-213.333S298.667 138.18 298.667 256v85.333H256c-47.128 0-85.333 38.205-85.333 85.333v426.667c0 47.128 38.205 85.333 85.333 85.333h512c47.128 0 85.333-38.205 85.333-85.333V426.666c0-47.128-38.205-85.333-85.333-85.333zm-256 384c-47.128 0-85.333-38.205-85.333-85.333s38.205-85.333 85.333-85.333 85.333 38.205 85.333 85.333-38.205 85.333-85.333 85.333zm132.267-384H379.734V256c0-73.049 59.218-132.267 132.267-132.267S644.268 182.951 644.268 256v85.333z"/></svg>