<svg xmlns="http://www.w3.org/2000/svg" viewBox="0 0 1024 1024" width="24" height="24"><path d="M682.667 512c0 94.257-76.41 170.667-170.667 170.667S341.333 606.257 341.333 512 417.743 341.333 512 341.333 682.667 417.743 682.667 512zM302.933 242.773c30.639-29.02 94.281-59.702 164.674-68.935l1.726-85.518c-72.345 2.539-159.235 37.723-228.179 94.046zm-129.28 226.56c1.747-47.876 27.97-113.867 69.684-167.148l-61.577-60.266c-44.335 47.157-84.405 131.862-94.139 225.58l85.179 1.834zM554.667 87.467V172.8c47.876 1.747 113.867 27.97 167.148 69.684l60.266-61.577c-47.564-44.244-132.136-83.857-225.618-93.293zm-311.894 633.6c-29.02-30.639-59.702-94.281-68.935-164.674l-85.518-1.726c2.604 72.081 38.13 159.177 94.882 228.15zm607.574-166.4c-1.747 47.876-27.97 113.867-69.684 167.148l61.577 60.266c44.335-47.157 84.405-131.862 94.139-225.58l-85.179-1.834zm-381.014 295.68c-47.876-1.747-113.867-27.97-167.148-69.684l-60.266 61.577c47.157 44.335 131.862 84.405 225.58 94.139l1.834-85.179zm311.894-547.414c29.02 30.639 59.702 94.281 68.935 164.674l85.518 1.726c-2.604-72.081-38.13-159.177-94.882-228.15zm-60.16 478.294c-30.639 29.02-94.281 59.702-164.674 68.935l-1.726 85.518c72.081-2.604 159.177-38.13 228.15-94.882z"/></svg>