<svg xmlns="http://www.w3.org/2000/svg" viewBox="0 0 1024 1024" width="24" height="24"><path d="M725.333 426.667V256c0-117.821-95.513-213.333-213.333-213.333S298.667 138.18 298.667 256v170.667h-99.556v540.444h625.778V426.667h-99.556zM327.111 256c0-102.111 82.778-184.889 184.889-184.889S696.889 153.889 696.889 256v170.667h-28.444V256c0-86.402-70.043-156.444-156.444-156.444S355.557 169.599 355.557 256v170.667h-28.444V256zM640 426.667H384V256c0-70.692 57.308-128 128-128s128 57.308 128 128v170.667zm156.444 512H227.555V455.111h568.889v483.556zM512 583.111c-23.564 0-42.667 19.103-42.667 42.667V768c0 23.564 19.103 42.667 42.667 42.667s42.667-19.103 42.667-42.667V625.778c0-23.564-19.103-42.667-42.667-42.667zM526.222 768c0 7.855-6.368 14.222-14.222 14.222s-14.222-6.368-14.222-14.222V625.778c0-7.855 6.368-14.222 14.222-14.222s14.222 6.368 14.222 14.222V768z"/></svg>