<svg xmlns="http://www.w3.org/2000/svg" viewBox="0 0 1024 1024" width="24" height="24"><path d="M955.307 880.782C935.95 815.45 876.511 768.416 806.022 768h-14.271c-23.564 0-42.667-19.103-42.667-42.667V355.555c0-138.989-112.673-251.662-251.662-251.662S245.76 216.566 245.76 355.555v369.778c0 23.564-19.103 42.667-42.667 42.667-63.024 5.096-116.892 50.317-134.97 110.964L35.982 995.556h29.582L96 888.605c15.85-53.345 64.399-91.763 121.981-92.16h121.646c35.098 59.806 99.085 99.325 172.302 99.325s137.204-39.519 171.794-98.39l122.108-.935c57.483.324 106.07 38.694 121.794 91.254l30.811 107.857h29.582zM497.778 132.409c121.547.127 220.361 97.295 223.142 218.195-24.338 31.636-62.051 51.637-104.435 51.637-44.004 0-82.973-21.558-106.921-54.689-29.682-41.054-76.99-67.207-130.406-67.207-38.476 0-73.783 13.569-101.396 36.183C297.5 211.172 388.437 132.556 497.763 132.409zM704 404.48l-4.978 54.187c-.529 5.998-5.529 10.667-11.62 10.667h-17.109l-1.849 11.52c-29.298 146.204-97.849 244.48-170.667 244.48s-141.369-98.276-170.667-244.48l-1.849-11.52h-17.098c-6.141 0-11.173-4.746-11.629-10.77l-10.669-110.688c23.845-24.039 56.89-38.92 93.411-38.92 43.924 0 82.82 21.526 106.715 54.605 29.625 41.03 76.877 67.172 130.235 67.172 32.669 0 63.05-9.8 88.362-26.62zM667.307 768l-3.982 7.68c-29.097 54.95-85.913 91.749-151.324 91.749s-122.228-36.799-150.877-90.823l-4.43-8.605h-96.427c8.877-11.606 14.223-26.322 14.223-42.287l-.001-.4V479.717c4.72 8.511 14.972 15.989 27.072 18.029 33.657 156.477 110.03 256.033 196.217 256.033s162.418-100.267 195.982-256c10.155-.965 20.767-7.729 27.214-17.486l.093 245.042-.001.38c0 15.965 5.347 30.681 14.347 42.456l-68.106-.169z"/></svg>