<svg xmlns="http://www.w3.org/2000/svg" viewBox="0 0 1024 1024" width="24" height="24"><path d="M512 71.111h.004c133.03 0 240.967 107.438 241.773 240.279 0 156.521-179.342 382.086-241.777 455.188-62.436-73.813-241.778-299.52-241.778-455.111.807-132.917 108.743-240.356 241.774-240.356H512zm0-28.444l-.854-.001c-148.569 0-269.045 120.277-269.368 268.77C241.778 513.138 512 810.667 512 810.667s270.222-297.529 270.222-499.2c-.323-148.524-120.8-268.801-269.368-268.801l-.9.001H512zM894.151 791.04c0-64.711-54.471-124.16-149.476-162.844l-10.809 26.027c83.769 34.133 131.84 83.769 131.84 136.391 0 95.858-161.991 176.498-353.707 176.498s-353.707-80.64-353.707-176.071c0-53.049 50.916-104.676 136.391-138.24l-10.24-27.022c-98.276 39.111-154.596 99.556-154.596 165.262 0 114.631 167.964 204.516 382.151 204.516s382.151-89.884 382.151-204.516zM512 227.556c47.128 0 85.333 38.205 85.333 85.333S559.128 398.222 512 398.222s-85.333-38.205-85.333-85.333 38.205-85.333 85.333-85.333zm0-28.445c-62.838 0-113.778 50.94-113.778 113.778S449.162 426.667 512 426.667c62.838 0 113.778-50.94 113.778-113.778S574.838 199.111 512 199.111z"/></svg>