<svg xmlns="http://www.w3.org/2000/svg" viewBox="0 0 1024 1024" width="24" height="24"><path d="M521.813 389.262c-20.579-20.529-48.983-33.222-80.35-33.222-13.72 0-26.874 2.429-39.053 6.879l-20.401 6.859 69.404 69.404-40.249 40.249-69.831-68.978-7.111 21.191c-4.122 11.292-6.506 24.329-6.506 37.923 0 62.838 50.94 113.778 113.778 113.778 10.353 0 20.384-1.383 29.917-3.974l150.954 151.794 80.498-80.498-151.751-151.609c2.468-8.843 3.886-18.997 3.886-29.483 0-31.349-12.678-59.737-33.187-80.315zm140.8 261.547l-40.249 40.249-143.929-144.071-9.102 3.129c-8.511 3.124-18.338 4.931-28.587 4.931-47.128 0-85.333-38.205-85.333-85.333 0-1.735.052-3.457.154-5.166l54.887 55.133 80.498-80.498-54.329-55.182a82.221 82.221 0 014.931-.143c47.128 0 85.333 38.205 85.333 85.333 0 10.249-1.807 20.076-5.12 29.18l-2.798 7.94zM170.667 28.444v85.333h-28.444v28.444h28.444v56.889h-28.444v28.444h28.444v56.889h-28.444v28.444h28.444v398.222h-28.444v28.444h28.444v56.889h-28.444v28.444h28.444v56.889h-28.444v28.444h28.444v85.333h682.667V28.441H170.667zm654.222 938.667H199.111v-56.889H256v-28.444h-56.889v-56.889H256v-28.444h-56.889v-56.889H256v-28.444h-56.889V312.89H256v-28.444h-56.889v-56.889H256v-28.444h-56.889v-56.889H256V113.78h-56.889V56.891h625.778v910.222z"/></svg>