<svg xmlns="http://www.w3.org/2000/svg" viewBox="0 0 1024 1024" width="24" height="24"><path d="M768 455.111V56.889H398.222L256 199.111v256H128v512h768v-512H768zM398.222 97.138v101.973H296.249zM284.444 227.556h142.222V85.334h312.889v369.778H284.444V227.556zm583.112 711.111H156.445V483.556h711.111v455.111zM568.889 540.444H455.111c-23.564 0-42.667 19.103-42.667 42.667s19.103 42.667 42.667 42.667h113.778c23.564 0 42.667-19.103 42.667-42.667s-19.103-42.667-42.667-42.667zm0 56.889H455.111c-7.855 0-14.222-6.368-14.222-14.222s6.368-14.222 14.222-14.222h113.778c7.855 0 14.222 6.368 14.222 14.222s-6.368 14.222-14.222 14.222z"/></svg>