<svg xmlns="http://www.w3.org/2000/svg" viewBox="0 0 1024 1024" width="24" height="24"><path d="M298.667 85.333v384h426.667v-384H298.667zm398.222 355.556H327.111V113.778h369.778v327.111zm-284.445-28.445h28.444v-42.667h28.444v42.667h28.444v-42.667h28.444v42.667h28.444v-42.667h28.444v42.667h28.444v-42.667h56.889V199.11H554.663v-56.889H469.33v56.889H355.552v170.667h56.889v42.667zM384 341.333V227.555h113.778v-56.889h28.444v56.889H640v113.778H384zm284.444 369.778V540.444H355.555v170.667h-28.444v14.745c0 70.883 15.346 138.182 42.898 198.756l8.444 18.605c6.347 14.137 20.309 23.838 36.544 23.893h.007c6.441 0 11.662 5.221 11.662 11.662v2.56h28.444v-2.56c0-22.15-17.956-40.107-40.107-40.107-4.737-.003-8.815-2.833-10.637-6.895l-9.558-21.549c-21.307-43.291-37.15-104.885-39.235-169.952l113.76-.714v113.778h85.333V739.555h113.778c-.362 55.347-14.836 117.485-40.409 173.493l-8.515 18.792c-1.849 4.134-5.927 6.965-10.666 6.969-22.04.08-39.884 17.925-39.965 39.957v2.568h28.444v-2.56c0-6.441 5.221-11.662 11.662-11.662h.073c16.227 0 30.203-9.637 36.518-23.5l9.774-21.869c26.236-57.475 41.53-124.665 41.53-195.426l-.001-1.037v-14.169h-28.444zm-28.444 0h-85.333v-28.444h-28.444v142.222h-28.444V682.667h-28.444v28.444h-85.333V568.889h28.444v56.889h28.444v-56.889h28.444v56.889h28.444v-56.889h28.444v56.889h28.444v-56.889h28.444v56.889h28.444v-56.889h28.444v142.222z"/></svg>