<svg xmlns="http://www.w3.org/2000/svg" viewBox="0 0 1024 1024" width="24" height="24"><path d="M951.324 241.778H583.111V85.334H412.444v156.444H72.675c-24.428 0-44.231 19.803-44.231 44.231v537.316c0 24.428 19.803 44.231 44.231 44.231h878.649c24.428 0 44.231-19.803 44.231-44.231V286.009c0-24.428-19.803-44.231-44.231-44.231zm-510.435-128h113.778v184.889H440.889V113.778zm526.222 709.546c0 8.719-7.068 15.787-15.787 15.787H72.675c-8.719 0-15.787-7.068-15.787-15.787V286.008c0-8.719 7.068-15.787 15.787-15.787h339.769v56.889h170.667v-56.889h368.213c8.719 0 15.787 7.068 15.787 15.787v537.316zM526.222 170.667c0 15.709-12.735 28.444-28.444 28.444s-28.444-12.735-28.444-28.444 12.735-28.444 28.444-28.444 28.444 12.735 28.444 28.444zM384 497.778c0-39.274-31.838-71.111-71.111-71.111s-71.111 31.838-71.111 71.111c0 39.274 31.838 71.111 71.111 71.111S384 537.051 384 497.778zm-71.111 42.666c-23.564 0-42.667-19.103-42.667-42.667s19.103-42.667 42.667-42.667 42.667 19.103 42.667 42.667-19.103 42.667-42.667 42.667zm0 28.445c-42.667 0-128 21.476-128 71.111v42.667h256V640c0-49.636-85.333-71.111-128-71.111zm99.555 85.333H213.333V640c0-23.182 61.156-42.667 99.556-42.667s99.556 19.484 99.556 42.667v14.222zM128 739.556h369.778V369.778H128v369.778zm28.444-341.334h312.889v312.889H156.444V398.222zM583.111 384h298.667v28.444H583.111V384zm0 85.333h156.444v28.444H583.111v-28.444z"/></svg>