<svg xmlns="http://www.w3.org/2000/svg" viewBox="0 0 1024 1024" width="24" height="24"><path d="M647.964 213.333h-79.076V28.444H455.11v184.889h-79.076L255.998 408.462v587.093h512V408.462zm-79.075 199.111c0 31.419-25.47 56.889-56.889 56.889s-56.889-25.47-56.889-56.889c.023-10.382 3.037-20.281 8.243-28.68l97.286.236c5.001 7.842 8.132 17.766 8.249 28.413zM483.556 56.889h56.889v298.667h-56.889V56.889zm256 910.222H284.445V416.427l107.52-174.649h63.147v107.378c-17.491 15.693-28.444 38.369-28.444 63.604 0 47.128 38.205 85.333 85.333 85.333s85.333-38.205 85.333-85.333c0-25.234-10.953-47.911-28.365-63.533l-.08-107.448h63.147l107.52 174.649v550.684zm-170.667-384h28.444v270.222h-28.444V583.111zm-142.222 0h28.444v270.222h-28.444V583.111z"/></svg>