<svg xmlns="http://www.w3.org/2000/svg" viewBox="0 0 1024 1024" width="24" height="24"><path d="M308.196 483.556h4.693c29.724 150.187 100.978 256 184.889 256s154.453-105.813 184.889-256h5.404c13.509-.015 24.608-10.323 25.876-23.503l8.826-104.497c.072-.725.113-1.566.113-2.418 0-14.364-11.636-26.01-25.995-26.027h-.002V218.027c0-49.72-40.306-90.027-90.027-90.027H298.666v199.111c-14.361.017-25.997 11.663-25.997 26.027 0 .851.041 1.693.121 2.523l9.521 104.428c1.345 13.224 12.418 23.458 25.884 23.467zm377.031-28.445h-26.596l-4.409 22.898c-27.307 137.244-91.591 233.102-156.444 233.102S368.64 615.253 341.334 478.009l-4.409-22.898h-26.453l-9.102-99.556h25.742v-14.222a87.143 87.143 0 01-.03-2.323c0-34.005 18.764-63.627 46.503-79.077 11.28-5.868 24.088-9.172 37.667-9.172 18.835 0 36.186 6.357 50.024 17.042l3.508 2.419h65.849l3.698-2.56c13.669-10.556 31.044-16.919 49.906-16.919 13.605 0 26.436 3.311 37.733 9.17 27.743 15.47 46.507 45.092 46.507 79.097 0 .817-.011 1.631-.032 2.443l.003-.12v14.222h25.742zM327.111 261.973V156.444h279.751c33.978.081 61.502 27.604 61.582 61.574v43.812c2.535-.386-13.602-16.618-33.25-27.156-15.221-7.925-32.535-12.403-50.895-12.403-23.35 0-45.009 7.242-62.853 19.603l-47.705-.24c-17.477-12.121-39.136-19.363-62.486-19.363-18.36 0-35.673 4.477-50.909 12.399.191-2.699-18.929 10.075-33.088 27.118zm613.973 618.809C921.727 815.45 862.288 768.416 791.799 768H653.084l-3.982 7.68c-29.097 54.95-85.913 91.749-151.324 91.749S375.55 830.63 346.901 776.606l-4.43-8.605H203.804c-70.385.341-129.866 47.323-149.05 111.675L21.76 995.557h29.582l30.436-106.951c15.85-53.345 64.399-91.763 121.981-92.16h121.646c35.098 59.806 99.085 99.325 172.302 99.325s137.204-39.519 171.794-98.39l122.108-.935c57.483.324 106.07 38.694 121.794 91.254l30.811 107.857h29.582z"/></svg>