<svg xmlns="http://www.w3.org/2000/svg" viewBox="0 0 1024 1024" width="24" height="24"><path d="M227.556 227.556v-56.889h-85.333v56.889H85.334v568.889h853.333V227.556H227.556zm-56.889-28.445h28.444v28.444h-28.444v-28.444zM113.778 256H256v512H113.778V256zm796.444 512H284.444V256h625.778v512zm-355.555-56.889c109.966 0 199.111-89.145 199.111-199.111s-89.145-199.111-199.111-199.111S355.556 402.034 355.556 512s89.145 199.111 199.111 199.111zm0-369.778c94.257 0 170.667 76.41 170.667 170.667s-76.41 170.667-170.667 170.667S384 606.257 384 512s76.41-170.667 170.667-170.667zm0 312.889c78.547 0 142.222-63.675 142.222-142.222s-63.675-142.222-142.222-142.222c-78.547 0-142.222 63.675-142.222 142.222s63.675 142.222 142.222 142.222zm0-256c62.838 0 113.778 50.94 113.778 113.778s-50.94 113.778-113.778 113.778c-62.838 0-113.778-50.94-113.778-113.778s50.94-113.778 113.778-113.778zm327.111-113.778H739.556v85.333h142.222v-85.333zm-28.445 56.889H768v-28.444h85.333v28.444z"/></svg>