<svg xmlns="http://www.w3.org/2000/svg" viewBox="0 0 1024 1024" width="24" height="24"><path d="M583.111 412.444c0-39.274-31.838-71.111-71.111-71.111s-71.111 31.838-71.111 71.111c0 39.274 31.838 71.111 71.111 71.111s71.111-31.838 71.111-71.111zM512 455.111c-23.564 0-42.667-19.103-42.667-42.667s19.103-42.667 42.667-42.667 42.667 19.103 42.667 42.667-19.103 42.667-42.667 42.667zm0 28.445c-42.667 0-128 21.476-128 71.111v42.667h256v-42.667c0-49.636-85.333-71.111-128-71.111zm99.556 85.333H412.445v-14.222c0-23.182 61.156-42.667 99.556-42.667s99.556 19.484 99.556 42.667v14.222zm-284.445 85.333h369.778V284.444H327.111v369.778zm28.445-341.333h312.889v312.889H355.556V312.889zm-28.445 398.222h298.667v28.444H327.111v-28.444zm0 85.333h156.444v28.444H327.111v-28.444zm341.333-682.666V85.334h-99.556V28.445H455.11v56.889h-99.556v28.444H213.332v796.444h597.333V113.778H668.443zm113.778 768H241.778V142.222h113.778v85.333h312.889v-85.333h113.778v739.556zM540.444 56.889v56.889H640v85.333H384v-85.333h99.556V56.889h56.889z"/></svg>