<svg xmlns="http://www.w3.org/2000/svg" viewBox="0 0 1024 1024" width="24" height="24"><path d="M810.311 348.444V192h28.444v-28.444H639.644V192h28.444v156.444h-85.333V192h28.444v-28.444H412.088V192h28.444v156.444h-85.333V192h28.444v-28.444H184.532V192h28.444v156.444h-84.978v512h768v-512h-85.689zM696.533 192h85.333v156.444h-85.333V192zm-227.555 0h85.333v156.444h-85.333V192zm-227.556 0h85.333v156.444h-85.333V192zm626.134 640H156.445V376.889h711.111V832zM568.889 433.778H455.111c-23.566 0-42.667 19.1-42.667 42.667s19.1 42.667 42.667 42.667h113.778c23.566 0 42.667-19.1 42.667-42.667s-19.1-42.667-42.667-42.667zm0 56.889H455.111c-7.836 0-14.222-6.386-14.222-14.222s6.386-14.222 14.222-14.222h113.778c7.851 0 14.222 6.386 14.222 14.222s-6.372 14.222-14.222 14.222z"/></svg>