<svg xmlns="http://www.w3.org/2000/svg" viewBox="0 0 1024 1024" width="24" height="24"><path d="M952.889 113.778c0-23.564-19.103-42.667-42.667-42.667h-85.333L455.822 440.178c-9.182-8.917-21.727-14.415-35.556-14.415s-26.374 5.498-35.568 14.427l-22.174 22.175c-19.553-5.061-42.001-7.966-65.127-7.966-149.24 0-270.222 120.983-270.222 270.222 0 139.015 104.973 253.513 239.977 268.549 6.412 1.027 18.711 2.113 31.211 2.381.535.006.809.006 1.083.006 148.768 0 269.369-120.601 269.369-269.369 0-22.771-2.826-44.883-8.145-66.003L583.111 640c9.153-9.075 14.82-21.653 14.82-35.556s-5.667-26.481-14.816-35.552l67.694-66.99c.381.253 3.385-4.089 5.061-9.044l6.174-18.405c3.898-11.313 14.451-19.311 26.876-19.342h.017c13.234 0 24.357-9.038 27.534-21.278l4.737-18.971c2.061-9.584 10.106-17.905 20.425-20.579l18.971-4.737c12.51-3.169 21.618-14.328 21.618-27.613v-.127-.019c0-12.505 8.069-23.125 19.284-26.937l17.125-5.748c1.675.078 7.001-2.756 11.095-6.828l29.581-29.581a28.354 28.354 0 008.249-20.031v-4.858c.017-7.803 3.222-14.914 8.39-20.052l26.028-26.028a28.324 28.324 0 0120.047-8.391h2.424c15.709 0 28.444-12.735 28.444-28.444zm-30.578 71.111l-.328-.001c-15.699 0-29.912 6.359-40.206 16.641l-26.026 26.026c-10.282 10.293-16.64 24.506-16.64 40.204v4.88l-29.582 29.582-16.924 5.689c-22.739 7.776-38.807 28.96-38.827 53.9l-18.773 4.696c-19.278 4.117-35.978 20.273-41.301 40.992l-4.779 19.168c-24.934.016-46.12 16.081-53.783 38.426l-6.093 18.462-65.991 65.28-19.911 20.053 19.627 20.196c4.043 3.932 6.551 9.424 6.551 15.502s-2.508 11.57-6.546 15.497l-22.334 21.765-11.236 11.236 4.267 15.36c4.461 17.338 7.022 37.242 7.022 57.744 0 133.059-107.866 240.924-240.924 240.924l-.956-.002c-9.378-.001-19.127-.569-28.712-1.674C149.365 951.816 55.641 849.456 55.641 725.206c0-133.53 108.248-241.778 241.778-241.778 20.643 0 40.683 2.587 59.811 7.455l13.829 3.337 11.093-10.667 22.187-22.187c4.079-4.014 9.679-6.492 15.858-6.492s11.779 2.478 15.861 6.495l20.05 19.482 19.769-19.769L836.695 99.553h67.698L487.682 516.122l20.053 20.053 416.711-416.142v64.853h-2.418zM227.556 725.333c-39.274 0-71.111 31.838-71.111 71.111s31.838 71.111 71.111 71.111c39.274 0 71.111-31.838 71.111-71.111s-31.838-71.111-71.111-71.111zm0 113.778c-23.564 0-42.667-19.103-42.667-42.667s19.103-42.667 42.667-42.667 42.667 19.103 42.667 42.667-19.103 42.667-42.667 42.667z"/></svg>