<svg xmlns="http://www.w3.org/2000/svg" viewBox="0 0 1024 1024" width="24" height="24"><path d="M170.667 28.444v85.333h-28.444v28.444h28.444v56.889h-28.444v28.444h28.444v56.889h-28.444v28.444h28.444v398.222h-28.444v28.444h28.444v56.889h-28.444v28.444h28.444v56.889h-28.444v28.444h28.444v85.333h682.667V28.441H170.667zm654.222 938.667H199.111v-56.889H256v-28.444h-56.889v-56.889H256v-28.444h-56.889v-56.889H256v-28.444h-56.889V312.89H256v-28.444h-56.889v-56.889H256v-28.444h-56.889v-56.889H256V113.78h-56.889V56.891h625.778v910.222zM512 312.889c-109.966 0-199.111 89.145-199.111 199.111S402.034 711.111 512 711.111 711.111 621.966 711.111 512 621.966 312.889 512 312.889zm0 369.778c-94.257 0-170.667-76.41-170.667-170.667S417.743 341.333 512 341.333 682.667 417.743 682.667 512 606.257 682.667 512 682.667zm14.222-184.889h99.556v28.444h-99.556v99.556h-28.444v-99.556h-99.556v-28.444h99.556v-99.556h28.444v99.556z"/></svg>