<svg xmlns="http://www.w3.org/2000/svg" viewBox="0 0 1024 1024" width="24" height="24"><path d="M810.667 170.667H632.32c-18.382-49.611-65.296-84.33-120.32-84.33s-101.938 34.719-120.032 83.444l-178.635.885c-47.128 0-85.333 38.205-85.333 85.333v597.333c0 47.128 38.205 85.333 85.333 85.333h597.333c47.128 0 85.333-38.205 85.333-85.333V255.999c0-47.128-38.205-85.333-85.333-85.333zM512 151.04c34.404 0 62.293 27.89 62.293 62.293s-27.89 62.293-62.293 62.293c-34.404 0-62.293-27.89-62.293-62.293.239-34.306 27.986-62.053 62.27-62.293zm0 203.093c63.623 0 115.2 51.577 115.2 115.2s-51.577 115.2-115.2 115.2c-63.623 0-115.2-51.577-115.2-115.2s51.577-115.2 115.2-115.2zm256 456.534H256v-38.4C256 686.934 426.667 640 512 640s256 46.933 256 132.267v38.4z"/></svg>