<svg xmlns="http://www.w3.org/2000/svg" viewBox="0 0 1024 1024" width="24" height="24"><path d="M554.667 128h-85.333v426.667h85.333V128zm206.08 92.587l-60.587 60.587c67.618 54.563 110.507 137.429 110.507 230.311V512.343c0 164.949-133.718 298.667-298.667 298.667S213.333 677.292 213.333 512.343c0-93.186 42.677-176.404 109.551-231.176l-59.631-60.58C180.272 291.46 128.001 396.19 128.001 513.128c0 212.077 171.923 384 384 384s384-171.923 384-384l-.002-1.189v-.194c0-116.514-52.299-220.813-134.702-290.703z"/></svg>