<svg xmlns="http://www.w3.org/2000/svg" viewBox="0 0 1024 1024" width="24" height="24"><path d="M512 384c-70.692 0-128 57.308-128 128s57.308 128 128 128c70.692 0 128-57.308 128-128s-57.308-128-128-128zm0-85.333c47.128 0 85.333-38.205 85.333-85.333S559.128 128.001 512 128.001s-85.333 38.205-85.333 85.333 38.205 85.333 85.333 85.333zm298.667 128c-47.128 0-85.333 38.205-85.333 85.333s38.205 85.333 85.333 85.333S896 559.128 896 512s-38.205-85.333-85.333-85.333zM512 725.333c-47.128 0-85.333 38.205-85.333 85.333s38.205 85.333 85.333 85.333 85.333-38.205 85.333-85.333-38.205-85.333-85.333-85.333zM213.333 426.667C166.205 426.667 128 464.872 128 512s38.205 85.333 85.333 85.333 85.333-38.205 85.333-85.333-38.205-85.333-85.333-85.333zM810.667 256c23.564 0 42.667-19.103 42.667-42.667s-19.103-42.667-42.667-42.667S768 189.769 768 213.333 787.103 256 810.667 256zm0 512C787.103 768 768 787.103 768 810.667s19.103 42.667 42.667 42.667 42.667-19.103 42.667-42.667S834.231 768 810.667 768zM213.333 256C236.897 256 256 236.897 256 213.333s-19.103-42.667-42.667-42.667-42.667 19.103-42.667 42.667S189.769 256 213.333 256zm0 512c-23.564 0-42.667 19.103-42.667 42.667s19.103 42.667 42.667 42.667S256 834.231 256 810.667 236.897 768 213.333 768z"/></svg>