<svg xmlns="http://www.w3.org/2000/svg" viewBox="0 0 1024 1024" width="24" height="24"><path d="M512 298.667c-117.821 0-213.333 95.513-213.333 213.333S394.18 725.333 512 725.333c117.821 0 213.333-95.513 213.333-213.333S629.82 298.667 512 298.667zm0-213.334C276.359 85.333 85.333 276.358 85.333 512S276.358 938.667 512 938.667c235.641 0 426.667-191.025 426.667-426.667S747.642 85.333 512 85.333zm0 768c-188.513 0-341.333-152.82-341.333-341.333S323.487 170.667 512 170.667c188.513 0 341.333 152.82 341.333 341.333S700.513 853.333 512 853.333z"/></svg>