<svg xmlns="http://www.w3.org/2000/svg" viewBox="0 0 1024 1024" width="24" height="24"><path d="M913.493 494.08l-384-384c-15.417-15.295-36.651-24.747-60.092-24.747H170.666c-47.128 0-85.333 38.205-85.333 85.333V469.401c0 23.653 9.624 45.059 25.169 60.515L494.506 913.92c15.417 15.295 36.651 24.747 60.092 24.747h.072c23.405-.051 44.738-9.665 60.152-25.169l298.671-298.671c15.415-15.264 25.071-36.574 25.173-60.14v-.087c0-23.653-9.624-45.059-25.169-60.515zM234.667 298.667c-35.346 0-64-28.654-64-64s28.654-64 64-64c35.346 0 64 28.654 64 64s-28.654 64-64 64z"/></svg>