<svg xmlns="http://www.w3.org/2000/svg" viewBox="0 0 1024 1024" width="24" height="24"><path d="M384 469.333h-85.333v85.333H384v-85.333zm170.667 0h-85.333v85.333h85.333v-85.333zm170.666 0H640v85.333h85.333v-85.333zm85.334-298.666H768V85.334h-85.333v85.333H341.334V85.334h-85.333v85.333h-42.667c-47.128 0-85.333 38.205-85.333 85.333v597.333c0 47.128 38.205 85.333 85.333 85.333h597.333c47.128 0 85.333-38.205 85.333-85.333V256c0-47.128-38.205-85.333-85.333-85.333zm0 682.666H213.334V384h597.333v469.333z"/></svg>