<svg xmlns="http://www.w3.org/2000/svg" viewBox="0 0 1024 1024" width="24" height="24"><path d="M512 256v128l170.667-170.667L512 42.666v128c-188.303.278-340.845 152.991-340.845 341.333 0 67.393 19.531 130.224 53.241 183.141l61.471-63.674c-18.806-34.307-29.868-75.168-29.868-118.613l.002-.9c0-141.338 114.615-255.954 256-255.954zm288.427 74.24l-62.293 62.293c18.635 34.623 29.585 75.766 29.585 119.467 0 141.286-114.455 255.84-255.703 256l-.015-128-170.667 170.667 170.667 170.667v-128c188.303-.278 340.845-152.991 340.845-341.333 0-67.393-19.531-130.224-53.241-183.141z"/></svg>