<svg xmlns="http://www.w3.org/2000/svg" viewBox="0 0 1024 1024" width="24" height="24"><path d="M512 298.667c117.76 0 213.333 95.573 213.333 213.333 0 27.733-5.547 53.76-15.36 78.08L834.56 714.667C898.987 660.907 949.76 591.36 980.907 512c-73.813-187.307-256-320-469.333-320-59.733 0-116.907 10.667-169.813 29.867l92.16 92.16c24.32-9.813 50.347-15.36 78.08-15.36zM85.333 182.187L202.24 299.094c-70.827 55.04-126.293 128.427-159.573 212.907 73.813 187.307 256 320 469.333 320 66.133 0 129.28-12.8 186.88-35.84l17.92 17.92 125.013 124.587L896 884.481l-756.48-756.48-54.187 54.187zM321.28 418.133l66.133 66.133c-2.133 8.96-3.413 18.347-3.413 27.733 0 70.827 57.173 128 128 128 9.387 0 18.773-1.28 27.733-3.413l66.133 66.133c-28.587 14.08-60.16 22.613-93.867 22.613-117.76 0-213.333-95.573-213.333-213.333 0-33.707 8.533-65.28 22.613-93.867zm183.893-33.28l134.4 134.4.853-6.827c0-70.827-57.173-128-128-128l-7.253.427z"/></svg>