<svg xmlns="http://www.w3.org/2000/svg" viewBox="0 0 1024 1024" width="24" height="24"><path d="M965.973 870.4l-98.133 98.133c-7.69 7.542-18.235 12.197-29.867 12.197s-22.177-4.655-29.874-12.203l-388.26-388.26c-29.248 11.622-63.137 18.362-98.6 18.362-76.695 0-146.029-31.52-195.753-82.313-51.091-49.981-82.74-119.56-82.74-196.531 0-43.37 10.048-84.393 27.943-120.869l185.309 185.085 128-128-181.76-183.467c34.541-16.254 75.02-25.742 117.716-25.742 77.183 0 147.125 31.005 198.049 81.239 50.81 49.74 82.33 119.073 82.33 195.768 0 35.463-6.739 69.353-19.007 100.457l388.912 386.41c7.567 7.034 12.286 17.043 12.286 28.154 0 13.037-6.496 24.556-16.429 31.497z"/></svg>